<svg width="96" height="96" xmlns="http://www.w3.org/2000/svg" xmlns:xlink="http://www.w3.org/1999/xlink" xml:space="preserve" overflow="hidden"><g transform="translate(-622 -393)"><path d="M687 408.77C681.19 408.77 674.924 412.43 670 422.2 665.077 412.432 658.809 408.77 653 408.77 643.943 408.77 636 417.67 636 426.2 636 447.2 670 473.2 670 473.2 670 473.2 704 447.2 704 426.2 704 417.671 696.056 408.77 687 408.77ZM670 470.647C664.015 465.813 638 443.783 638 426.2 638.157 422.243 639.781 418.487 642.556 415.662 645.227 412.679 648.998 410.912 653 410.77 658.888 410.77 664.149 415.034 668.214 423.1L670 426.644 671.786 423.1C675.851 415.034 681.112 410.77 687 410.77 694.57 410.77 702 418.413 702 426.2 702 443.783 675.985 465.813 670 470.647Z"/></g></svg>
