<svg width="96" height="96" xmlns="http://www.w3.org/2000/svg" xmlns:xlink="http://www.w3.org/1999/xlink" xml:space="preserve" overflow="hidden"><g transform="translate(-362 -345)"><path d="M395.554 357.068 395.554 357.068C395.636 357.068 395.719 357.075 395.8 357.088 396.738 357.24 397.316 358.225 397.577 358.798 398.166 360.245 398.329 361.83 398.047 363.367 397.537 366.52 395.636 368.638 394.181 368.638 394.099 368.638 394.016 368.632 393.935 368.618 392.997 368.467 392.419 367.482 392.158 366.908 391.569 365.461 391.406 363.876 391.688 362.339 392.198 359.186 394.099 357.068 395.554 357.068M395.554 355.068C392.903 355.068 390.359 358.028 389.714 362.019 389.022 366.294 390.769 370.132 393.614 370.593 393.801 370.623 393.99 370.638 394.18 370.638 396.831 370.638 399.374 367.678 400.02 363.687 400.712 359.412 398.965 355.574 396.12 355.114 395.933 355.083 395.744 355.068 395.554 355.068Z"/><path d="M404.429 370.247 404.429 370.247C404.731 370.246 405.03 370.304 405.31 370.419 406.074 370.79 406.632 371.484 406.83 372.31 407.129 373.486 407.028 374.727 406.544 375.839 405.78 377.676 404.204 378.958 402.712 378.958 402.409 378.959 402.11 378.901 401.83 378.785 401.067 378.415 400.51 377.724 400.31 376.9 400.011 375.724 400.112 374.482 400.596 373.37 401.36 371.534 402.936 370.251 404.429 370.251M404.429 368.251C402.181 368.251 399.858 369.937 398.75 372.602 397.365 375.932 398.4 379.529 401.062 380.636 401.585 380.853 402.146 380.964 402.712 380.962 404.96 380.962 407.282 379.276 408.391 376.611 409.776 373.281 408.74 369.684 406.078 368.577 405.555 368.36 404.995 368.25 404.429 368.251Z"/><path d="M380.368 357.064C381.823 357.064 383.724 359.182 384.234 362.335 384.516 363.872 384.353 365.457 383.764 366.904 383.503 367.478 382.925 368.463 381.987 368.614 381.906 368.627 381.823 368.634 381.741 368.634 380.286 368.634 378.385 366.516 377.875 363.364 377.593 361.827 377.756 360.241 378.345 358.794 378.606 358.22 379.184 357.235 380.122 357.084 380.203 357.071 380.286 357.064 380.368 357.064M380.368 355.064C380.178 355.064 379.989 355.079 379.802 355.109 376.956 355.57 375.209 359.409 375.902 363.683 376.548 367.674 379.091 370.634 381.742 370.634 381.932 370.634 382.121 370.619 382.308 370.589 385.154 370.128 386.901 366.289 386.208 362.015 385.562 358.024 383.019 355.064 380.368 355.064Z"/><path d="M371.492 370.246 371.492 370.246C372.984 370.246 374.56 371.529 375.324 373.365 375.808 374.477 375.909 375.719 375.61 376.895 375.411 377.721 374.854 378.414 374.09 378.785 373.81 378.9 373.51 378.959 373.208 378.958 371.716 378.958 370.14 377.675 369.376 375.838 368.892 374.726 368.791 373.484 369.09 372.309 369.289 371.483 369.846 370.79 370.61 370.419 370.89 370.303 371.189 370.245 371.492 370.246M371.492 368.246C370.926 368.245 370.365 368.355 369.842 368.572 367.18 369.679 366.142 373.272 367.53 376.606 368.638 379.271 370.96 380.958 373.208 380.958 373.774 380.96 374.335 380.849 374.858 380.631 377.52 379.524 378.558 375.931 377.171 372.597 376.062 369.932 373.74 368.246 371.492 368.246Z"/><path d="M387.9 374.419C389.212 374.415 390.458 374.994 391.3 376L391.317 376.021 391.336 376.042C392.02 376.819 392.493 377.759 392.711 378.771 393.182 380.693 394.079 382.483 395.336 384.011L396.059 384.911C396.739 385.727 397.511 386.463 398.359 387.103 399.146 387.722 399.782 388.512 400.22 389.413 400.908 390.814 401.062 392.418 400.654 393.925 400.591 394.175 400.506 394.419 400.401 394.655 399.406 396.889 396.788 397.894 394.553 396.899 394.536 396.891 394.518 396.883 394.501 396.875 394.198 396.749 393.906 396.599 393.627 396.426 392.086 395.41 390.281 394.868 388.435 394.87L388.304 394.87 387.004 394.911C385.266 394.996 383.58 395.533 382.113 396.468 381.868 396.622 381.61 396.754 381.341 396.861L381.314 396.872 381.287 396.883C380.712 397.132 380.092 397.261 379.465 397.26 377.419 397.283 375.629 395.889 375.15 393.9 374.75 392.393 374.918 390.792 375.621 389.4 376.044 388.517 376.662 387.741 377.43 387.133 378.289 386.486 379.072 385.744 379.762 384.919L379.779 384.899 379.795 384.878 380.458 384.041C381.731 382.498 382.638 380.685 383.109 378.741 383.341 377.724 383.824 376.782 384.513 376 385.353 374.998 386.593 374.419 387.9 374.419M387.9 372.419C386.394 372.419 384.937 372.95 383.784 373.919 383.492 374.164 383.222 374.434 382.978 374.726 382.083 375.75 381.457 376.98 381.157 378.306 380.758 379.943 379.992 381.468 378.917 382.766L378.227 383.636C377.635 384.344 376.964 384.981 376.227 385.536 375.203 386.337 374.378 387.364 373.816 388.536 372.906 390.358 372.693 392.449 373.216 394.417 373.706 396.248 374.954 397.783 376.647 398.637 378.36 399.446 380.338 399.479 382.077 398.727 382.46 398.575 382.828 398.387 383.177 398.167 384.352 397.416 385.704 396.985 387.097 396.917L388.367 396.877 388.435 396.877C389.898 396.877 391.329 397.308 392.548 398.117 392.924 398.352 393.319 398.556 393.728 398.727 396.973 400.175 400.776 398.718 402.224 395.473 402.376 395.133 402.498 394.779 402.589 394.417 403.114 392.451 402.908 390.361 402.009 388.536 401.44 387.366 400.612 386.34 399.589 385.536 398.851 384.982 398.18 384.344 397.589 383.636L396.889 382.766C395.815 381.468 395.049 379.943 394.649 378.306 394.357 376.977 393.73 375.745 392.829 374.726 391.609 373.266 389.803 372.423 387.9 372.426Z"/><path d="M440.563 390.067 440.563 390.067C440.646 390.067 440.728 390.074 440.81 390.087 441.747 390.239 442.325 391.224 442.586 391.797 443.175 393.244 443.338 394.829 443.056 396.366 442.546 399.52 440.645 401.637 439.19 401.637 439.108 401.637 439.025 401.631 438.944 401.618 438.006 401.466 437.428 400.481 437.167 399.907 436.578 398.46 436.415 396.875 436.697 395.338 437.207 392.185 439.108 390.067 440.563 390.067M440.563 388.067C437.912 388.067 435.369 391.028 434.723 395.019 434.031 399.293 435.778 403.132 438.623 403.592 438.81 403.622 438.999 403.637 439.189 403.637 441.84 403.637 444.389 400.677 445.029 396.686 445.721 392.412 443.974 388.573 441.129 388.113 440.942 388.082 440.753 388.067 440.563 388.067Z"/><path d="M449.434 403.249 449.434 403.249C449.736 403.248 450.035 403.306 450.315 403.421 451.079 403.792 451.636 404.486 451.835 405.311 452.134 406.487 452.033 407.729 451.549 408.841 450.785 410.677 449.209 411.96 447.717 411.96 447.414 411.961 447.115 411.903 446.835 411.787 446.071 411.416 445.513 410.723 445.315 409.897 445.016 408.721 445.117 407.48 445.601 406.368 446.365 404.531 447.941 403.249 449.434 403.249M449.434 401.249C447.186 401.249 444.863 402.935 443.755 405.6 442.37 408.93 443.405 412.527 446.068 413.634 446.591 413.851 447.151 413.962 447.717 413.96 449.965 413.96 452.287 412.273 453.396 409.609 454.781 406.279 453.745 402.682 451.083 401.575 450.56 401.358 450 401.247 449.434 401.249Z"/><path d="M425.377 390.065C426.832 390.065 428.733 392.183 429.243 395.335 429.525 396.872 429.362 398.458 428.773 399.905 428.512 400.478 427.934 401.463 426.996 401.615 426.915 401.628 426.832 401.635 426.75 401.635 425.295 401.635 423.394 399.517 422.884 396.364 422.602 394.827 422.765 393.242 423.354 391.795 423.615 391.221 424.193 390.236 425.13 390.084 425.212 390.071 425.294 390.065 425.377 390.065M425.377 388.065C425.187 388.065 424.998 388.08 424.811 388.11 421.965 388.571 420.218 392.41 420.911 396.683 421.556 400.675 424.099 403.635 426.751 403.635 426.941 403.635 427.13 403.62 427.317 403.589 430.163 403.129 431.91 399.289 431.217 395.016 430.571 391.025 428.028 388.064 425.377 388.065Z"/><path d="M416.489 403.249 416.489 403.249C417.982 403.249 419.558 404.531 420.321 406.368 420.806 407.48 420.906 408.722 420.607 409.897 420.409 410.723 419.851 411.417 419.087 411.787 418.808 411.903 418.508 411.961 418.206 411.96 416.713 411.96 415.138 410.677 414.374 408.841 413.89 407.729 413.789 406.487 414.088 405.312 414.286 404.486 414.844 403.792 415.608 403.421 415.888 403.306 416.187 403.248 416.489 403.249M416.489 401.249C415.923 401.247 415.363 401.358 414.84 401.575 412.178 402.682 411.14 406.275 412.527 409.609 413.635 412.274 415.958 413.96 418.206 413.96 418.772 413.962 419.332 413.851 419.855 413.634 422.518 412.527 423.555 408.934 422.168 405.6 421.06 402.935 418.737 401.249 416.489 401.249Z"/><path d="M432.907 407.42C434.22 407.417 435.466 407.998 436.307 409.005L436.324 409.026 436.343 409.047C437.027 409.824 437.5 410.764 437.718 411.776 438.188 413.698 439.085 415.489 440.343 417.016L441.067 417.916C441.747 418.732 442.519 419.467 443.367 420.107 444.154 420.727 444.79 421.517 445.228 422.418 445.916 423.819 446.07 425.422 445.662 426.928 445.599 427.179 445.514 427.424 445.409 427.66 444.414 429.893 441.798 430.897 439.565 429.902 439.548 429.895 439.531 429.887 439.514 429.879 439.211 429.752 438.919 429.602 438.639 429.43 437.098 428.413 435.293 427.872 433.447 427.874L433.31 427.874 432.048 427.916C430.306 428.001 428.617 428.54 427.148 429.479 424.978 430.871 422.091 430.241 420.698 428.071 420.465 427.707 420.283 427.312 420.158 426.898 419.758 425.391 419.926 423.79 420.629 422.398 421.052 421.515 421.671 420.74 422.438 420.132 423.297 419.485 424.08 418.742 424.77 417.917L424.787 417.897 424.803 417.876 425.466 417.039C426.739 415.496 427.646 413.684 428.117 411.739 428.348 410.724 428.829 409.783 429.517 409.001 430.356 407.997 431.597 407.417 432.905 407.416M432.905 405.416C431.399 405.416 429.942 405.947 428.789 406.916 428.497 407.16 428.227 407.43 427.982 407.722 427.088 408.746 426.462 409.976 426.162 411.302 425.763 412.939 424.997 414.464 423.922 415.762L423.232 416.633C422.64 417.341 421.969 417.978 421.232 418.533 420.208 419.334 419.383 420.361 418.821 421.533 417.911 423.354 417.698 425.445 418.221 427.413 419.253 430.95 422.957 432.98 426.494 431.948 427.104 431.77 427.686 431.506 428.221 431.163 429.397 430.412 430.749 429.981 432.142 429.913L433.372 429.873 433.439 429.873C434.902 429.873 436.333 430.304 437.553 431.113 437.929 431.348 438.324 431.552 438.733 431.723 441.978 433.171 445.781 431.714 447.229 428.469 447.381 428.129 447.503 427.775 447.594 427.413 448.119 425.447 447.913 423.358 447.014 421.533 446.445 420.362 445.618 419.337 444.594 418.533 443.857 417.979 443.185 417.341 442.594 416.633L441.894 415.762C440.819 414.464 440.053 412.939 439.654 411.302 439.362 409.973 438.735 408.741 437.834 407.722 436.614 406.262 434.808 405.419 432.905 405.422Z"/></g></svg>